<svg width="496" height="208" fill="none" xmlns="http://www.w3.org/2000/svg"><path d="M1.75 8h12.5m0 0L9.5 3.75M14.25 8L9.5 12.25M301.45 8H296m0 0v5.45M296 8h-5.425M296 8V2.575M332 38l-3.53 3.441a.8.8 0 01-1.131-.014L324 38m-32 4l3.53-3.441a.8.8 0 011.131.014L300 42" stroke="#071D2B" stroke-width="1.2" stroke-linecap="round" stroke-linejoin="round"/><circle cx="424" cy="136" r="3" fill="#071D2B"/><path d="M201.371 68.133v-2.2m0 2.2h1.063a1.4 1.4 0 011.4 1.4v1.037m-2.463-2.437h-2.87m-4.633 2.437h2.2m0 0v-1.037a1.4 1.4 0 011.4-1.4h1.033m-2.433 2.437v2.9m2.433-5.337v-2.2m-4.633 7.537h2.2m0 0v.997a1.4 1.4 0 001.4 1.4h1.033m0 2.166v-2.166m0 0h2.9m2.433-2.397h2.167m-2.167 0v.997a1.4 1.4 0 01-1.4 1.4h-1.033m2.433-2.397v-2.9m2.167 0h-2.167m-2.433 5.297v2.166m-2.933-7.5h2.966v2.934h-2.966v-2.934zm-67.659 2.371V67.7a1.2 1.2 0 011.2-1.2h7.113a1.2 1.2 0 011.2 1.2v.229m-11.047 7.004h6.203m7.249.778h-4.809m4.809 0v-4.35a1.2 1.2 0 00-1.2-1.2h-2.409a1.2 1.2 0 00-1.2 1.2v4.35m4.809 0V76.8a1.2 1.2 0 01-1.2 1.2h-2.409a1.2 1.2 0 01-1.2-1.2v-1.089" stroke="#071D2B" stroke-width="1.2" stroke-linecap="round" stroke-linejoin="round"/><path d="M78.45 66.65a.6.6 0 000-1.2v1.2zm-2.1-.6v-.6a.6.6 0 00-.591.497l.591.103zm-2.949 2.5a.6.6 0 100-1.2v1.2zm1.797 4.124l.591.103-.59-.103zm3.252-7.224h-2.1v1.2h2.1v-1.2zm-3.693 11.826a.49.49 0 01-.49.49v1.2a1.69 1.69 0 001.69-1.69h-1.2zm-.49.49a.49.49 0 01-.491-.49h-1.2c0 .934.757 1.69 1.69 1.69v-1.2zm-.491-.49c0-.27.22-.49.49-.49v-1.2a1.69 1.69 0 00-1.69 1.69h1.2zm.49-.49c.271 0 .49.22.49.49h1.2a1.69 1.69 0 00-1.69-1.69v1.2zm-5.034.49a.49.49 0 01-.49.49v1.2a1.69 1.69 0 001.69-1.69h-1.2zm-.49.49a.49.49 0 01-.491-.49h-1.2c0 .934.757 1.69 1.69 1.69v-1.2zm-.491-.49c0-.27.22-.49.49-.49v-1.2a1.69 1.69 0 00-1.69 1.69h1.2zm.49-.49a.49.49 0 01.491.49h1.2a1.69 1.69 0 00-1.69-1.69v1.2zm7.018-10.839l-1.152 6.624 1.182.206 1.152-6.624-1.182-.206zM73.622 73.4h-4.566v1.2h4.566v-1.2zm-5.525-.716l-1.07-3.62-1.151.34 1.07 3.62 1.151-.34zm-.687-4.134h5.99v-1.2h-5.99v1.2zm-.384.514a.4.4 0 01.384-.514v-1.2a1.6 1.6 0 00-1.534 2.054l1.15-.34zm2.03 4.336a1 1 0 01-.959-.716l-1.15.34a2.2 2.2 0 002.109 1.576v-1.2zm5.551-.829a1 1 0 01-.985.83v1.2a2.2 2.2 0 002.167-1.824l-1.182-.206z" fill="#071D2B"/><path d="M391.95 132.3c-2.628 0-5.259 1.491-6.4 3.9 1.198 2.396 3.738 3.85 6.4 3.85 2.719 0 5.142-1.495 6.45-3.85-1.248-2.371-3.767-3.9-6.45-3.9z" stroke="#071D2B" stroke-width="1.2" stroke-linecap="round" stroke-linejoin="round"/><path d="M391.9 131.8c-1.819 0-3.4 1.578-3.4 3.4 0 1.788 1.612 3.4 3.4 3.4 1.822 0 3.4-1.581 3.4-3.4 0-1.853-1.547-3.4-3.4-3.4zm-2.1 3.4c0-1.103.988-2.1 2.1-2.1.488 0 .535.8 0 .8-.687 0-1.3.606-1.3 1.3 0 .491-.8.468-.8 0z" fill="#071D2B"/><path d="M165.93 2.422l5.014 5.014a.799.799 0 010 1.131l-5.014 5.014m103.652-7.645l-5.014 5.014a.8.8 0 01-1.131 0l-5.014-5.014M226.46 10.06l5.014-5.014a.8.8 0 011.132 0l5.014 5.014m-35.663 3.521l-5.014-5.014a.8.8 0 010-1.131l5.014-5.014M230 44l3.441-3.53a.8.8 0 00-.014-1.131L230 36m36 8l-3.441-3.53a.8.8 0 01.014-1.131L266 36m98.5-23.45L359.95 8m0 0l-4.55 4.55M359.95 8l4.5-4.55M359.95 8l-4.55-4.55" stroke="#071D2B" stroke-width="1.2" stroke-linecap="round" stroke-linejoin="round"/><path d="M355 141l10-10m-10 0l10 10" stroke="#071D2B" stroke-width="2" stroke-linecap="round" stroke-linejoin="round"/><path d="M46.25 8h-12.5m0 0l4.75-4.25M33.75 8l4.75 4.25m126.78 28.038l1.182 1.183a.8.8 0 001.134-.002l3.059-3.08m3.35 1.61c0-3.294-2.704-6-6-6s-6 2.706-6 6c0 3.273 2.724 6 6 6s6-2.727 6-6z" stroke="#071D2B" stroke-width="1.2" stroke-linecap="round" stroke-linejoin="round"/><path d="M450.005 103.999c0-3.294 2.704-6 6-6s6 2.706 6 6c0 3.274-2.724 6-6 6s-6-2.726-6-6z" fill="#9AE437"/><path d="M453.28 104.288l1.182 1.183a.801.801 0 001.134-.002l3.059-3.081m3.35 1.611c0-3.294-2.704-6-6-6s-6 2.706-6 6c0 3.274 2.724 6 6 6s6-2.726 6-6z" stroke="#9AE437" stroke-width="1.2" stroke-linecap="round" stroke-linejoin="round"/><path d="M453.28 104.288l1.183 1.183a.8.8 0 001.133-.002l3.059-3.081m-194.654-32.73v-.798m0 6.28v-3.283m6 .143c0-3.277-2.711-6-6-6-3.293 0-6 2.715-6 6 0 3.277 2.723 6 6 6 3.274 0 6-2.73 6-6z" stroke="#071D2B" stroke-width="1.2" stroke-linecap="round" stroke-linejoin="round"/><path fill-rule="evenodd" clip-rule="evenodd" d="M302.601 72c0-3.604-2.991-6.6-6.6-6.6-3.619 0-6.6 2.988-6.6 6.6 0 3.608 2.996 6.6 6.6 6.6 3.607 0 6.6-3 6.6-6.6zm-6-3.14a.6.6 0 00-1.2 0v.8a.6.6 0 001.2 0v-.8zm0 3a.6.6 0 00-1.2 0v3.28a.6.6 0 001.2 0v-3.28z" fill="#071D2B"/><path d="M361 37l2.441 2.504a.8.8 0 01-.014 1.131L361 43m-4-6l2.441 2.504a.8.8 0 01-.014 1.131L357 43m35-6l-2.441 2.504a.8.8 0 00.014 1.131L392 43m4-6l-2.441 2.504a.8.8 0 00.014 1.131L396 43M130.25 13.9h11.55M136 1.75v9.5m0 0l3.45-3.95M136 11.25l-3.45-3.95" stroke="#071D2B" stroke-width="1.2" stroke-linecap="round" stroke-linejoin="round"/><path d="M168.05 129a5.235 5.235 0 00-5.25 5.25c0 3.191 2.9 6.21 4.75 8.5.3.334.616.334.95 0 1.854-2.289 4.75-5.305 4.75-8.5 0-2.865-2.31-5.25-5.2-5.25zm-.05 2.9c1.259 0 2.3 1.046 2.3 2.3 0 1.29-1.011 2.3-2.3 2.3a2.317 2.317 0 01-2.3-2.3c0-1.223 1.076-2.3 2.3-2.3z" fill="#071D2B"/><path clip-rule="evenodd" d="M102 36.5a.5.5 0 01.8-.4l4.667 3.5a.5.5 0 010 .8l-4.667 3.5a.5.5 0 01-.8-.4v-7z" stroke="#071D2B" stroke-width="1.2" stroke-linecap="round" stroke-linejoin="round"/><circle cx="8" cy="136" r="7" stroke="#071D2B" stroke-width="1.2" stroke-linecap="round" stroke-linejoin="round" stroke-dasharray="2 3"/><path d="M3.79 138.032v-4.07h.613v4.07H3.79zm3.043.074c-1.007 0-1.81-.855-1.81-2.106s.803-2.105 1.81-2.105c.734 0 1.17.427 1.432.915l-.525.312c-.168-.336-.503-.592-.907-.592-.666 0-1.18.616-1.18 1.47 0 .855.514 1.471 1.18 1.471.404 0 .74-.25.907-.592l.525.311c-.268.488-.698.916-1.432.916z" fill="#071D2B"/><path fill-rule="evenodd" clip-rule="evenodd" d="M10.422 133.895c-1.05 0-1.79.891-1.79 2.105 0 1.215.74 2.106 1.79 2.106 1.049 0 1.788-.891 1.788-2.106 0-1.214-.74-2.105-1.788-2.105zm0 .635c.703 0 1.159.628 1.159 1.47 0 .836-.456 1.471-1.16 1.471-.707 0-1.159-.635-1.159-1.471 0-.842.451-1.47 1.16-1.47z" fill="#071D2B"/><path d="M41.8 70.35c-.5.5-1.1.75-1.8.75s-1.3-.25-1.8-.75-.75-1.083-.75-1.75c0-.733.25-1.333.75-1.8.5-.533 1.1-.8 1.8-.8s1.3.267 1.8.8c.5.467.75 1.067.75 1.8 0 .667-.25 1.25-.75 1.75zm-6.5 7.1c.2.267.5.4.9.4h7.75c.333-.033.6-.183.8-.45.2-.2.3-.483.3-.85 0-.7-.466-1.483-1.4-2.35-.966-.933-2.183-1.4-3.65-1.4s-2.7.467-3.7 1.4c-.9.867-1.35 1.65-1.35 2.35 0 .367.117.667.35.9z" stroke="#071D2B" stroke-width="1.2"/><path d="M102.051 64.75l.5 1.7m0 0c1.5-.4 2.933-.217 4.3.55m-4.3-.55c-1.567.4-2.767 1.283-3.6 2.65m7.9-2.1c1.4.8 2.3 1.983 2.7 3.55m-2.7-3.55l-1.65 2.75m4.35.8l1.7-.45m-1.7.45c.433 1.567.233 3.033-.6 4.4m0 0c-.767 1.333-1.917 2.2-3.45 2.6m3.45-2.6l-2.8-1.65m-.65 4.25l.4 1.7m-.4-1.7c-1.567.433-3.05.267-4.45-.5m4.15-7.3c.6.433.983.967 1.15 1.6.2.667.133 1.317-.2 1.95m-.95-3.55a2.521 2.521 0 00-1.9-.25c-.7.2-1.233.6-1.6 1.2m4.45 2.6c-.367.567-.9.933-1.6 1.1-.633.167-1.267.1-1.9-.2m-3.7-5.1l2.75 1.6m-2.75-1.6c-.767 1.367-.95 2.833-.55 4.4m3.3-2.8a2.521 2.521 0 00-.25 1.9c.2.7.6 1.233 1.2 1.6m-1.6 2.85c-1.367-.8-2.25-1.983-2.65-3.55m2.65 3.55l1.6-2.85m-4.25-.7l-1.65.45M427.35 44l3.434-3.434a.799.799 0 000-1.132L427.35 36m-6.7 8l-3.434-3.434a.799.799 0 010-1.132L420.65 36" stroke="#071D2B" stroke-width="1.2" stroke-linecap="round" stroke-linejoin="round"/><path d="M195.379 34.935a.6.6 0 00-1.188.166l1.188-.166zm-.294 2.233l-.594.083.084.608.606-.099-.096-.592zm9.479 7.75a.6.6 0 101.19-.15l-1.19.15zm.345-2.075l.595-.074-.075-.604-.603.084.083.594zm-2.233-.294a.6.6 0 00.166 1.188l-.166-1.188zm-5.345-5.139a.6.6 0 00-.193-1.184l.193 1.184zm-2.391 2.265a.6.6 0 10-1.197-.076l1.197.076zm10.118.673a.6.6 0 001.198.08l-1.198-.08zM194.191 35.1l.3 2.15 1.188-.166-.3-2.15-1.188.166zm11.563 9.668l-.25-2-1.19.148.25 2 1.19-.148zm-.928-2.52l-2.15.3.166 1.188 2.15-.3-.166-1.188zm-9.645-4.489l2.15-.35-.193-1.184-2.15.35.193 1.184zM200 45.07a5.07 5.07 0 01-5.07-5.07h-1.2a6.27 6.27 0 006.27 6.27v-1.2zm0-10.14c2.8 0 5.07 2.27 5.07 5.07h1.2a6.27 6.27 0 00-6.27-6.27v1.2zM194.93 40c0-.11.003-.218.01-.325l-1.197-.076a5.927 5.927 0 00-.013.401h1.2zm10.14 0c0 .117-.004.233-.012.348l1.198.08a6.7 6.7 0 00.014-.428h-1.2zm-.69 2.556A5.069 5.069 0 01200 45.07v1.2a6.268 6.268 0 005.416-3.108l-1.036-.606zm-8.766-5.101A5.068 5.068 0 01200 34.93v-1.2a6.267 6.267 0 00-5.423 3.121l1.037.604z" fill="#071D2B"/><path d="M104.01 2.5v11m0 0l3.825-4.341m-3.825 4.34l-3.825-4.34M72.01 13.5v-11m0 0l3.825 4.341m-3.825-4.34l-3.825 4.34" stroke="#071D2B" stroke-width="1.2" stroke-linecap="round" stroke-linejoin="round"/><path d="M131.75 34.362a1 1 0 011.552-.833l8.508 5.637a1 1 0 010 1.668l-8.508 5.637a1 1 0 01-1.552-.833V34.362z" fill="#071D2B" stroke="#071D2B" stroke-width="1.2" stroke-linecap="round" stroke-linejoin="round"/><path d="M12.726 73.332v2.965a1 1 0 01-1 1H9.209v-3.965H6.793v3.965H4.274a1 1 0 01-1-1v-2.965M2.25 71.599l4.889-4.888a1.2 1.2 0 011.697 0l4.915 4.914" stroke="#071D2B" stroke-width="1.2" stroke-linecap="round" stroke-linejoin="round"/><path fill-rule="evenodd" clip-rule="evenodd" d="M237.768 135.199l-3.022 2.294 1.164 3.732c.154.487-.414 1.002-.864.664L232 139.577l-3.045 2.312c-.45.339-1.019-.177-.864-.664l1.164-3.732-3.022-2.293c-.418-.316-.225-1.068.33-1.068h3.741l1.158-3.715c.158-.54.919-.54 1.077 0l1.158 3.715h3.741c.554 0 .747.751.33 1.067z" fill="#071D2B"/><path opacity=".3" fill-rule="evenodd" clip-rule="evenodd" d="M266.746 137.493l1.164 3.732c.154.487-.415 1.002-.864.664L264 139.577l-3.046 2.312c-.435.328-1.026-.152-.863-.664l1.164-3.732-3.022-2.293c-.417-.317-.226-1.068.33-1.068h3.741l1.158-3.715A.568.568 0 01264 130c.254 0 .468.176.539.417l1.158 3.715h3.74c.555 0 .748.751.331 1.067l-3.022 2.294z" fill="#071D2B"/><path fill-rule="evenodd" clip-rule="evenodd" d="M264 130v9.577l-3.046 2.312c-.449.339-1.018-.177-.863-.664l1.164-3.732-3.022-2.293c-.417-.317-.226-1.068.33-1.068h3.741l1.158-3.715A.568.568 0 01264 130z" fill="#071D2B"/><path d="M169.812 73.855l3.224 3.224-3.224-3.224zm0 0c-.785.785-1.736 1.178-2.852 1.178-1.116 0-2.066-.393-2.852-1.178-.806-.785-1.198-1.736-1.178-2.852 0-1.116.393-2.066 1.178-2.852.786-.764 1.736-1.157 2.852-1.178 1.096 0 2.046.393 2.852 1.178.785.786 1.178 1.736 1.178 2.852 0 1.137-.393 2.088-1.178 2.852zm-27.562 27.008v6.1a1.8 1.8 0 01-1.8 1.8h-8.9a1.8 1.8 0 01-1.8-1.8v-6.125m12.5.025v0c0-.898-.728-1.626-1.625-1.626h-9.275a1.6 1.6 0 00-1.6 1.601v0m12.5.025l-4.562 3.94a2.6 2.6 0 01-3.41-.009l-4.528-3.956M43.43 40.47v2.853a2.2 2.2 0 01-2.2 2.2h-4.32a2.2 2.2 0 01-2.2-2.2V39a2.2 2.2 0 012.2-2.2h2.851m5.949-2.277h-3.8m3.8 0v3.8m0-3.8l-6.95 6.975m27.949 66.976h11m0-4h-11m0-4h11m-7.692-1.404v2.8m4.384 4v-2.8m-4.384 6.8v-2.8" stroke="#071D2B" stroke-width="1.2" stroke-linecap="round" stroke-linejoin="round"/><path d="M101.505 98.54l-1.189-.086c-1.08.62-1.613 1.486-1.602 2.599-.011 1.538.844 3.294 2.567 5.268l.568.585c1.975 1.721 3.727 2.571 5.254 2.548 1.114.011 1.992-.523 2.635-1.601l-.103-1.171-2.859-.895-1.327 1.085c-1.872-.976-3.25-2.359-4.134-4.149l1.068-1.308-.878-2.875z" fill="#071D2B"/><path d="M2.809 35.198l1 3.525m0 0l3.625-.9m-3.625.9c.517-2.198 2.564-3.7 4.8-3.7 2.74 0 5 2.259 5 5 0 2.725-2.276 5-5 5-2.165 0-4.176-1.452-4.78-3.53M233.1 78.034c1.107-.19 2.04-1.106 2.254-2.208m.783-2.268c.514-.766.771-1.639.771-2.618 0-2.586-2.116-4.802-4.725-4.802-2.612 0-4.725 2.207-4.725 4.802 0 .974.25 1.843.748 2.606m7.931.012v-1.196a1.06 1.06 0 00-1.061-1.06v0a1.06 1.06 0 00-1.06 1.06v2.44c0 .585.475 1.06 1.06 1.06v0a1.06 1.06 0 001.061-1.06v-1.244zm-7.931-.012v-1.184c0-.585.475-1.06 1.061-1.06v0c.585 0 1.06.474 1.06 1.06v2.44a1.06 1.06 0 01-1.06 1.06v0a1.06 1.06 0 01-1.061-1.06v-1.256zm2.676 4.488v0c0 .333.27.603.603.603h1.011c.333 0 .604-.27.604-.603v0a.604.604 0 00-.604-.603h-1.011a.603.603 0 00-.603.603zM332.434 8.023h-8.425" stroke="#071D2B" stroke-width="1.2" stroke-linecap="round" stroke-linejoin="round"/><path clip-rule="evenodd" d="M78 40c0-3.266-2.737-6-6-6-3.29 0-6 2.713-6 6 0 3.309 2.692 6 6 6 3.287 0 6-2.71 6-6zm-4.319.37a.5.5 0 000-.834l-2.219-1.47a.5.5 0 00-.776.417v2.939a.5.5 0 00.776.417l2.22-1.47z" stroke="#071D2B" stroke-width="1.2" stroke-linecap="round" stroke-linejoin="round"/><path d="M3.986 102.891v-4.769m-2.384 2.384h4.769m-.7 5.263l-3.369 3.368m3.369 0l-3.369-3.368m10.806.528H8.995m4.113 2.362H8.995m4.066-8.168H8.949M232 107.927V110m0-12v2.073m-2.787 7.854h4.081a1.963 1.963 0 001.963-1.964v0a1.963 1.963 0 00-1.963-1.963h-2.588a1.963 1.963 0 01-1.963-1.963v0c0-1.085.879-1.964 1.963-1.964h4.081" stroke="#071D2B" stroke-width="1.2" stroke-linecap="round" stroke-linejoin="round"/><path d="M258.783 103.582l-1.005-.309v3.147l-.503 3.247h1.971l-.463-3.247v-2.838zm-1.915-2.239a.3.3 0 000 .57l6.508 2.138c.405.133.843.133 1.248 0l6.508-2.138a.3.3 0 000-.57l-6.508-2.138a2 2 0 00-1.248 0l-6.508 2.138z" fill="#071D2B"/><path d="M259.556 103.838v2.08c0 1.71 3.32 1.932 4.444 1.932 1.112 0 4.444-.241 4.444-1.932v-2.08l-3.817 1.261a1.995 1.995 0 01-1.255 0l-3.816-1.261zm34.538-2.435l-.308.515 1.03.616.308-.515-1.03-.616zm2.401 5.211a.6.6 0 10-1.2 0h1.2zm-1.2.405a.6.6 0 101.2 0h-1.2zm1.496-4.541a.896.896 0 01-.44.772l.612 1.032a2.098 2.098 0 001.028-1.804h-1.2zm-.896-.897c.495 0 .896.402.896.897h1.2a2.097 2.097 0 00-2.096-2.097v1.2zm-.6 3.193v.235h1.2v-.235h-1.2zm-.171-2.755a.896.896 0 01.771-.438v-1.2c-.766 0-1.436.411-1.801 1.022l1.03.616zm.171 4.595v.405h1.2v-.405h-1.2zM296 98.6c2.965 0 5.4 2.441 5.4 5.4h1.2c0-3.621-2.972-6.6-6.6-6.6v1.2zm5.4 5.4c0 2.956-2.441 5.4-5.4 5.4v1.2c3.622 0 6.6-2.981 6.6-6.6h-1.2zm-5.4 5.4c-2.935 0-5.4-2.464-5.4-5.4h-1.2c0 3.598 3.002 6.6 6.6 6.6v-1.2zm-5.4-5.4c0-2.939 2.459-5.4 5.4-5.4v-1.2c-3.605 0-6.6 2.999-6.6 6.6h1.2zm5.751-.75a2.666 2.666 0 00-.675.551 1.5 1.5 0 00-.381.973h1.2c0-.037.014-.1.096-.197.085-.1.215-.202.372-.295l-.612-1.032z" fill="#071D2B"/><path d="M422 102l2 2m0 0l2 2m-2-2l2-2m-2 2l-2 2m2-8c3.297 0 6 2.71 6 6 0 3.288-2.71 6-6 6-3.267 0-6-2.733-6-6 0-3.27 2.727-6 6-6z" stroke="#071D2B" stroke-width="1.2" stroke-linecap="round"/><path d="M32.6 140.291h9.867m-9.867-4.469h14.8M32.6 131.6h12.333" stroke="#071D2B" stroke-width="1.2" stroke-linecap="round" stroke-linejoin="round"/><path d="M72.667 137.817c0-3.244 2.324-6.629 6.025-7.664a.787.787 0 01.918.445c.205.443-.014.967-.41 1.253-.83.601-1.532 1.572-1.89 2.478-.195.496.184.971.669 1.194A3.475 3.475 0 0180 138.681c0 2.121-1.723 3.319-3.466 3.319-2.01 0-3.867-1.537-3.867-4.183zm-8.667 0c0-3.244 2.324-6.629 6.025-7.664a.787.787 0 01.919.445c.204.443-.015.967-.41 1.253-.831.601-1.533 1.572-1.89 2.478-.196.496.183.971.668 1.194a3.475 3.475 0 012.021 3.158c0 2.121-1.722 3.319-3.466 3.319-2.01 0-3.867-1.537-3.867-4.183zm45.133-6.317c0-.156-.055-.3-.166-.433a.638.638 0 00-.467-.2h-1.767c-.377 0-.733-.134-1.066-.4l-1.234-1.267a.586.586 0 00-.433-.167c-.156 0-.3.056-.433.167l-1.267 1.267c-.311.266-.656.4-1.033.4h-1.8c-.156 0-.3.066-.434.2a.661.661 0 00-.166.433v1.767c0 .4-.145.755-.434 1.066l-1.266 1.234a.706.706 0 00-.167.466c0 .156.056.3.167.434l1.266 1.233c.29.311.434.667.434 1.067v1.766c0 .178.055.323.166.434.134.133.278.2.434.2h1.8c.377 0 .722.133 1.033.4l1.267 1.266a.6.6 0 00.433.2.534.534 0 00.433-.2l1.234-1.266c.333-.267.689-.4 1.066-.4h1.767a.642.642 0 00.467-.2.587.587 0 00.166-.434v-1.766c0-.4.145-.756.434-1.067l1.233-1.233a.608.608 0 00.2-.434.64.64 0 00-.2-.466l-1.233-1.234a1.522 1.522 0 01-.434-1.066V131.5zm-2.233 3.033c0 .111-.044.2-.133.267l-3.334 3.333a.318.318 0 01-.266.134.415.415 0 01-.3-.134l-1.667-1.666a.362.362 0 01-.1-.267c0-.111.033-.211.1-.3a.486.486 0 01.3-.1c.111 0 .199.033.267.1l1.4 1.4 3.033-3.067a.486.486 0 01.3-.1c.111 0 .199.033.267.1.089.09.133.19.133.3zm29.1-5.5c-.156 0-.3.056-.433.167l-1.267 1.267c-.311.266-.656.4-1.033.4h-1.8c-.156 0-.3.066-.434.2a.661.661 0 00-.166.433v1.767c0 .4-.145.755-.434 1.066l-1.266 1.234a.707.707 0 00-.167.466c0 .156.056.3.167.434l1.266 1.233c.289.311.434.667.434 1.067v1.766c0 .178.055.323.166.434.134.133.278.2.434.2h1.8c.377 0 .722.133 1.033.4l1.267 1.266a.6.6 0 00.433.2.534.534 0 00.433-.2l1.234-1.266c.333-.267.689-.4 1.066-.4h1.767a.642.642 0 00.467-.2.587.587 0 00.166-.434v-1.766c0-.4.145-.756.434-1.067l1.233-1.233a.608.608 0 00.2-.434.64.64 0 00-.2-.466l-1.233-1.234a1.522 1.522 0 01-.434-1.066V131.5c0-.156-.055-.3-.166-.433a.638.638 0 00-.467-.2h-1.767c-.377 0-.733-.134-1.066-.4l-1.234-1.267a.586.586 0 00-.433-.167zm-2.467 8.034a.419.419 0 01-.3-.134.36.36 0 01-.1-.266v-1.8c0-1.111.556-1.667 1.667-1.667h2.4c1.111 0 1.667.555 1.667 1.667v1.8c0 .11-.045.199-.134.266a.318.318 0 01-.266.134.415.415 0 01-.3-.134.356.356 0 01-.1-.266v-1.8c0-.578-.289-.867-.867-.867h-2.4c-.578 0-.867.289-.867.867v1.8a.314.314 0 01-.133.266.318.318 0 01-.267.134zm-.933 1.3a.415.415 0 01-.3-.134.36.36 0 01-.1-.266c0-.111.033-.211.1-.3a.48.48 0 01.3-.1h6.8a.358.358 0 01.267.1.414.414 0 01.133.3c0 .11-.044.199-.133.266a.32.32 0 01-.267.134h-6.8z" fill="#071D2B"/><path d="M322 136l3.555 3.447a.8.8 0 001.127-.013L334 132" stroke="#071D2B" stroke-width="2" stroke-linecap="round" stroke-linejoin="round"/><path d="M194.5 136.124l2.877 2.877a.999.999 0 001.414 0l6.709-6.709" stroke="#071D2B" stroke-width="1.2" stroke-linecap="round" stroke-linejoin="round"/><path fill-rule="evenodd" clip-rule="evenodd" d="M297.595 135.61c.251.2.251.58 0 .78l-2.449 1.96a.5.5 0 01-.813-.39v-3.92a.5.5 0 01.813-.39l2.449 1.96z" fill="#071D2B"/><path d="M36.122 102.402H34.9a1.4 1.4 0 00-1.4 1.4v3.27a1.4 1.4 0 001.4 1.4h4.85l1.44 1.421a.3.3 0 00.51-.213v-2.74m-1.45-2.194l-1.413 1.413a.3.3 0 01-.512-.212v-5.85a1.4 1.4 0 011.4-1.4H45.1a1.4 1.4 0 011.4 1.4v3.249a1.4 1.4 0 01-1.4 1.4h-4.85zm127.8 1.904v1.05m0-6.2v3m-1.059-5.684l-5.457 9.276a1.2 1.2 0 001.035 1.808h11.012a1.2 1.2 0 001.029-1.817l-5.555-9.275a1.2 1.2 0 00-2.064.008zm26.959 1.684a3.06 3.06 0 01-.05-.5c0-1.118.86-2.05 2-2.05.233 0 .467.05.7.15m3.3 3.15v3.25l-1.15 1.25m4.7-7.65c.2-.1.433-.15.7-.15 1.124 0 1.95.96 1.95 2.05 0 .134-.017.3-.05.5m-.95 4c0-2.85-2.351-5.2-5.2-5.2-2.826 0-5.15 2.395-5.15 5.2 0 2.84 2.293 5.2 5.15 5.2 2.88 0 5.2-2.315 5.2-5.2zm122.906-30.302a62.68 62.68 0 00-1.095 2.23 2.729 2.729 0 00-.247 1.117c-.027.886.862 1.392 1.867.971.718-1.667 1.818-3.07 3.301-4.21l1.819-.846v-5.344l-4.82-1.511h-3.538c-.699 0-1.265.566-1.265 1.265v0c0 .698.566 1.265 1.265 1.265h1.878-2.717c-.698 0-1.265.566-1.265 1.265v0c0 .698.567 1.265 1.265 1.265h1.863-2.701c-.699 0-1.265.566-1.265 1.265v0c0 .698.566 1.265 1.264 1.265l4.391.003zm32-4.458a62.767 62.767 0 01-1.095-2.23 2.729 2.729 0 01-.247-1.117c-.027-.886.862-1.392 1.867-.971.718 1.667 1.818 3.07 3.301 4.21l1.819.846v5.344l-4.82 1.511h-3.538a1.265 1.265 0 01-1.265-1.265v0c0-.698.566-1.265 1.265-1.265h1.878-2.717a1.265 1.265 0 01-1.265-1.265v0c0-.698.567-1.265 1.265-1.265h1.863-2.701a1.265 1.265 0 01-1.265-1.265v0c0-.698.566-1.265 1.264-1.265l4.391-.003zm27.002 5.6v-6.533a2.8 2.8 0 012.8-2.8h4.534m2.326 3.926v6.134a1.6 1.6 0 01-1.6 1.6h-4.134a1.6 1.6 0 01-1.6-1.6v-6.134a1.6 1.6 0 011.6-1.6h4.134a1.6 1.6 0 011.6 1.6z" stroke="#071D2B" stroke-width="1.2" stroke-linecap="round" stroke-linejoin="round"/><path d="M388.795 8h8.667m-9.934 4.867l9.519-3.943c.823-.341.823-1.507 0-1.848l-9.519-3.943a.6.6 0 00-.761.832l1.723 3.293a1.6 1.6 0 010 1.484l-1.723 3.292a.6.6 0 00.761.833z" stroke="#071D2B" stroke-width="1.2" stroke-linecap="round"/><path d="M327.96 103.293a.6.6 0 000 1.2v-1.2zm-.888-2.042l-.417-.432-1.068 1.032h1.485v-.6zm-4.449.826l-.424-.425-.02.022.444.403zm-1.123 2.91h.6-.6zm4.058 4.213v-.6.6zm1.986-3.27a.6.6 0 000 1.2v-1.2zm.901-6.006l-.416-.432.416.432zm-.956 1.758l1.373-1.327-.833-.863-1.374 1.327.834.863zm-5.31-.008a4.791 4.791 0 00-1.279 3.313h1.2c0-.965.319-1.792.968-2.507l-.889-.806zm-1.279 3.313c0 2.444 1.971 4.813 4.658 4.813v-1.2c-1.939 0-3.458-1.743-3.458-3.613h-1.2zm5.302-7.338l-4.003 4.003.848.849 4.004-4.004-.849-.848zm6.977 3.002h-6.107v1.2h6.107v-1.2zm-5.219 3.842h5.219v-1.2h-5.219v1.2zm.719 4.107h-3.121v1.2h3.121v-1.2zm0-2.67h-1.135v1.2h1.135v-1.2zm-1.135 1.2h2.058v-1.2h-2.058v1.2zm2.058-3.837h-1.642v1.2h1.642v-1.2zm1.012 4.572a1.935 1.935 0 00-1.935-1.935v1.2c.406 0 .735.329.735.735h1.2zm-1.935 1.935a1.935 1.935 0 001.935-1.935h-1.2a.735.735 0 01-.735.735v1.2zm.923-2.67a1.919 1.919 0 001.918-1.919h-1.2a.719.719 0 01-.718.719v1.2zm4.298-4.558a.721.721 0 01-.721.721v1.2a1.92 1.92 0 001.921-1.921h-1.2zm-6.849-4.075a.697.697 0 01.986 0l.849-.848a1.898 1.898 0 00-2.684 0l.849.848zm6.128 3.354c.398 0 .721.323.721.721h1.2a1.92 1.92 0 00-1.921-1.921v1.2zm-1.659 3.36a1.918 1.918 0 00-1.918-1.918v1.2c.396 0 .718.322.718.718h1.2zm-2.658-4.856a1.897 1.897 0 00.024-2.706l-.849.848a.698.698 0 01-.008.995l.833.863zm31.178 4.138a.6.6 0 000-1.2v1.2zm.888-3.242v.6h1.485l-1.068-1.032-.417.432zm4.449.826l.444-.403-.02-.022-.424.425zm1.123 2.91h-.6.6zm-4.058 4.213v-.6.6zm-1.986-2.07a.6.6 0 000-1.2v1.2zm.889-6.311l-1.374-1.327-.833.863 1.373 1.327.834-.863zm3.587 1.661c.649.715.968 1.542.968 2.507h1.2c0-1.263-.43-2.377-1.279-3.313l-.889.806zm.968 2.507c0 1.87-1.519 3.613-3.458 3.613v1.2c2.687 0 4.658-2.369 4.658-4.813h-1.2zm-4.951-6.49l4.004 4.004.848-.849-4.003-4.003-.849.848zm-6.128 3.354h6.107v-1.2h-6.107v1.2zm5.219 1.442h-5.219v1.2h5.219v-1.2zm-.719 6.507h3.121v-1.2h-3.121v1.2zm0-2.67h1.135v-1.2h-1.135v1.2zm1.135-1.2h-2.058v1.2h2.058v-1.2zm-2.058-1.437h1.642v-1.2h-1.642v1.2zm.188 3.372c0-.406.329-.735.735-.735v-1.2a1.935 1.935 0 00-1.935 1.935h1.2zm.735.735a.735.735 0 01-.735-.735h-1.2c0 1.069.866 1.935 1.935 1.935v-1.2zm-.923-2.67a.719.719 0 01-.718-.719h-1.2c0 1.06.859 1.919 1.918 1.919v-1.2zm-5.498-3.358a1.92 1.92 0 001.921 1.921v-1.2a.721.721 0 01-.721-.721h-1.2zm8.898-4.923a1.898 1.898 0 00-2.684 0l.849.848a.697.697 0 01.986 0l.849-.848zm-6.977 3.002a1.92 1.92 0 00-1.921 1.921h1.2c0-.398.323-.721.721-.721v-1.2zm2.859 4.56c0-.396.322-.718.718-.718v-1.2a1.918 1.918 0 00-1.918 1.918h1.2zm2.291-5.719a.698.698 0 01-.008-.995l-.849-.848c-.75.75-.739 1.97.024 2.706l.833-.863z" fill="#071D2B"/><path d="M390.93 106.25l2.227-1.781c.3-.241.3-.697 0-.938l-2.227-1.781" stroke="#071D2B" stroke-width="1.2" stroke-linecap="round"/><path d="M418 76.945v0c0 .723.586 1.308 1.308 1.308h2.709l.37.215a3.202 3.202 0 003.222-.007l.354-.208h2.729c.722 0 1.308-.585 1.308-1.308v0m-6-9.37v8.984m0-8.983l-4.495-.873a1.6 1.6 0 00-1.905 1.57v5.395a2 2 0 001.619 1.963l4.781.928m0-8.983l4.498-.865a1.6 1.6 0 011.902 1.571v5.394a2 2 0 01-1.622 1.964l-4.778.92m-2-6.383l-2.4-.466m2.4 3.361l-2.4-.465m6.4-2.43l2.4-.466m-2.4 3.361l2.4-.465m32.596-32.612l1.754 1.758m-1.754-1.758l-1.753 1.758m1.753-1.758l1.744-1.748m-1.744 1.748l-1.743-1.748m-7.008-.84v5.186m3.305 2.698l-2.977-2.364a1.204 1.204 0 00-.747-.26h-1.376a1.2 1.2 0 01-1.2-1.2v-2.933a1.2 1.2 0 011.2-1.2h1.376c.271 0 .534-.092.747-.26l2.977-2.365a.8.8 0 011.297.627v9.328a.8.8 0 01-1.297.627z" stroke="#071D2B" stroke-width="1.2" stroke-linecap="round" stroke-linejoin="round"/><path d="M481.25 38.734a1.4 1.4 0 011.4-1.4h1.595l3.305-2.625a.8.8 0 011.297.627v9.328a.8.8 0 01-1.297.627l-3.305-2.624h-1.595a1.4 1.4 0 01-1.4-1.4v-2.533z" fill="#071D2B"/><path d="M484.245 37.407v5.186m7.382-4.092c.872.759.872 2.24 0 2.998m2.334-3.582c1.21 1.054 1.21 3.112 0 4.166m-9.716-4.75h-1.595a1.4 1.4 0 00-1.4 1.4v2.534a1.4 1.4 0 001.4 1.4h1.595l3.305 2.624a.8.8 0 001.297-.627v-9.328a.8.8 0 00-1.297-.627l-3.305 2.624z" stroke="#071D2B" stroke-width="1.2" stroke-linecap="round" stroke-linejoin="round"/><path d="M454 133v7m4-7v7" stroke="#071D2B" stroke-width="1.2" stroke-linecap="round"/><path d="M0 161h7v7H0v-7zm8 0h7v7H8v-7zm-8 8h7v7H0v-7zm8 0h7v7H8m36.094-7.879c.02 2.27 1.991 3.026 2.013 3.035-.017.053-.315 1.077-1.038 2.134-.625.913-1.274 1.824-2.296 1.843-1.005.018-1.328-.596-2.476-.596s-1.507.577-2.457.614c-.987.038-1.738-.988-2.369-1.898-1.288-1.863-2.272-5.263-.95-7.558.656-1.14 1.83-1.861 3.103-1.88.97-.018 1.884.652 2.476.652.592 0 1.703-.806 2.871-.688.49.021 1.862.198 2.744 1.488-.071.044-1.638.956-1.621 2.854zM42.986 160c-1.651.066-3.228 1.788-3.005 3.457 1.763.136 3.185-1.818 3.005-3.457z" fill="#071D2B"/><path fill-rule="evenodd" clip-rule="evenodd" d="M66.434 162.943a.68.68 0 00-.962.962l1.837 1.836A7.99 7.99 0 0064 172.222v1.034h16v-1.034a7.99 7.99 0 00-3.309-6.481l1.837-1.836a.68.68 0 00-.962-.962l-2.078 2.078a8.058 8.058 0 00-6.977 0l-2.077-2.078zm8.57 7.557a1 1 0 100-2 1 1 0 000 2zm-6.004 0a1 1 0 100-2 1 1 0 000 2zm32-10.5a5 5 0 00-5 5v6a5 5 0 005 5h6a5 5 0 005-5v-6a5 5 0 00-5-5h-6zm-3 5v1h1v-1h-1zm0 5.5a.5.5 0 001 0V167h-1v3.5zm2-2.5c0-1.73 1.034-3 2.5-3s2.5 1.27 2.5 3-1.034 3-2.5 3-2.5-1.27-2.5-3zm.857 0c0 1.27.687 2.1 1.643 2.1s1.643-.83 1.643-2.1-.687-2.1-1.643-2.1-1.643.83-1.643 2.1zm5.577 1.331l-.434.781c.495.592 1.212.888 2.03.888 1.283 0 1.97-.769 1.97-1.751 0-1.314-1.01-1.586-1.859-1.811-.606-.166-1.131-.331-1.131-.829 0-.461.384-.745 1-.745s1.162.296 1.445.698l.404-.745A2.417 2.417 0 00108 165c-1.192 0-1.859.781-1.859 1.692 0 1.228.966 1.49 1.793 1.715l.005.001c.627.166 1.182.355 1.182.923 0 .486-.363.817-1.05.817-.657 0-1.303-.391-1.637-.817z" fill="#071D2B"/><path d="M130.4 168.955v5.245a.8.8 0 00.8.8h2.133a.8.8 0 00.8-.8v-3.445a.8.8 0 01.8-.8h2.134a.8.8 0 01.8.8v3.445a.8.8 0 00.8.8h2.133a.8.8 0 00.8-.8v-5.245l-4.851-5.488a1 1 0 00-1.498 0l-4.851 5.488z" fill="#071D2B"/><path d="M135.251 162.405l-5.425 6.137a.49.49 0 01-.733-.647l5.409-6.119a2 2 0 012.997 0l5.408 6.119a.49.49 0 11-.733.647l-5.425-6.137a.998.998 0 00-1.498 0z" fill="#071D2B"/><path fill-rule="evenodd" clip-rule="evenodd" d="M162 163.5a1.5 1.5 0 011.5-1.5h9a1.5 1.5 0 010 3h-9a1.5 1.5 0 01-1.5-1.5zm0 4.5a1.5 1.5 0 011.5-1.5h9a1.5 1.5 0 010 3h-9a1.5 1.5 0 01-1.5-1.5zm1.5 3a1.5 1.5 0 000 3h9a1.5 1.5 0 100-3h-9zm8.5-7.5a.5.5 0 111 0 .5.5 0 01-1 0zm0 4.5a.5.5 0 111 0 .5.5 0 01-1 0zm.5 4a.5.5 0 100 1 .5.5 0 000-1zm29.883-8.967a2.06 2.06 0 00-4.118.088v1.413l.385-.171c.225-.1.434-.232.619-.393l.023-.02a.74.74 0 01.94-.024c.196.152.414.273.646.358l.181.066c.233.085.388.325.314.562a.472.472 0 01-.04.099h.103c.824 1.369 1.143 2.2 1.469 3.473a1.506 1.506 0 001.45 1.144.792.792 0 00.2-.023c1.633-.423-.533-2.883-1.577-3.956a1.864 1.864 0 01-.536-1.212l-.059-1.404z" fill="#071D2B"/><path d="M198.514 173.223c1.059.426 1.958.45 3.161.076m-5.792-3.671c0-.992 1.105-2.844 2.221-3.825m0 0l.161-1.269m-.161 1.269c-.132 1.033-1.403 2.638-1.22 3.825m1.381-5.094v-1.413a2.06 2.06 0 011.997-2.059v0a2.06 2.06 0 012.121 1.971l.059 1.404c.02.456.218.885.536 1.212 1.044 1.073 3.21 3.533 1.577 3.956a.792.792 0 01-.2.023v0a1.506 1.506 0 01-1.45-1.144c-.326-1.273-.645-2.104-1.469-3.473h-.103m-3.068-.477l.385-.171c.225-.1.434-.232.619-.393l.023-.02a.74.74 0 01.94-.024v0c.196.152.414.273.646.358l.181.066c.233.085.388.325.314.562a.472.472 0 01-.04.099m-3.068-.477c.464 1.65 2.499 1.485 3.068.477m2.461 9.302l.624-.592c.156-.148.334-.271.526-.365l.849-.415a.53.53 0 00.203-.779l-.234-.336a1.42 1.42 0 01-.234-.575l-.085-.513a.53.53 0 00-.591-.439l-.516.068a1.406 1.406 0 01-.618-.057l-.39-.126a.53.53 0 00-.686.42l-.151.933c-.034.212-.1.417-.196.609l-.385.77a1.19 1.19 0 00.356 1.489v0a1.191 1.191 0 001.528-.092zm-5.807-1.636l-.582-.633a2.166 2.166 0 01-.357-.532l-.402-.855a.53.53 0 00-.775-.215l-.34.228a1.41 1.41 0 01-.578.225l-.515.077a.53.53 0 00-.448.585l.06.516a1.42 1.42 0 01-.066.617l-.132.388a.529.529 0 00.409.692l.93.166c.211.038.416.107.606.206l.763.397a1.19 1.19 0 001.495-.332v0a1.192 1.192 0 00-.068-1.53z" stroke="#071D2B" stroke-width=".75" stroke-linecap="round" stroke-linejoin="round"/><path fill-rule="evenodd" clip-rule="evenodd" d="M238.5 172.5V166a1 1 0 00-1-1h-2a1 1 0 00-1 1v6.5a1 1 0 001 1h2a1 1 0 001-1zm1-6.5a2 2 0 00-2-2h-2a2 2 0 00-2 2v6.5a2 2 0 002 2h2a2 2 0 002-2V166z" fill="#071D2B"/><path d="M226.5 162.625h8a1 1 0 01.786.382c.071-.005.142-.007.214-.007h.9a2 2 0 00-1.9-1.375h-8a2 2 0 00-2 2v4.5a2 2 0 002 2h3.5v1.227h-2a.5.5 0 000 1h4.5v-1H231v-1.227h1.5v-1.5h-6a1 1 0 01-1-1v-4a1 1 0 011-1zm33.206 9.995a3.455 3.455 0 11.929-6.785 4.621 4.621 0 018.645 1.43 2.681 2.681 0 01-.212 5.355h-9.362zM15 200a7 7 0 10-8.691 6.794v-4.655H4.866V200h1.443v-.922c0-2.382 1.078-3.487 3.417-3.487.444 0 1.209.087 1.522.174v1.939a9.14 9.14 0 00-.809-.026c-1.147 0-1.591.435-1.591 1.565V200h2.286l-.392 2.139H8.848v4.81A7.001 7.001 0 0015 200z" fill="#071D2B"/><path fill-rule="evenodd" clip-rule="evenodd" d="M36.375 192.964c.937-.143 2.127-.157 3.628-.157 1.501 0 2.691.014 3.628.157.955.145 1.732.436 2.347 1.048l.013.013c.612.615.904 1.391 1.05 2.347.144.937.159 2.127.159 3.628 0 1.502-.015 2.692-.159 3.629-.146.955-.438 1.731-1.05 2.347l-.013.012c-.615.613-1.392.903-2.347 1.049-.937.142-2.127.157-3.628.157-1.5 0-2.691-.015-3.628-.157-.955-.146-1.732-.436-2.347-1.049l-.013-.012c-.611-.615-.905-1.39-1.053-2.346-.145-.937-.162-2.128-.162-3.63 0-1.502.017-2.692.162-3.629.148-.956.441-1.732 1.053-2.346l.013-.013c.615-.612 1.392-.903 2.347-1.048zm.211 1.384c-.793.121-1.244.331-1.57.657l-.009.008c-.326.327-.538.779-.661 1.572-.126.812-.146 1.891-.146 3.415 0 1.525.02 2.604.146 3.415.123.793.335 1.245.661 1.573l.008.008c.327.325.778.536 1.571.657.812.123 1.892.141 3.417.141 1.526 0 2.605-.018 3.417-.141.793-.121 1.244-.332 1.57-.657l.009-.008c.325-.327.537-.778.658-1.571.125-.812.143-1.892.143-3.417s-.018-2.604-.143-3.416c-.121-.793-.333-1.245-.658-1.571l-.008-.008c-.327-.326-.778-.536-1.571-.657-.812-.124-1.892-.141-3.417-.141s-2.605.017-3.417.141zM36.34 200a3.663 3.663 0 117.326 0 3.663 3.663 0 01-7.326 0zm3.663-2.263a2.263 2.263 0 100 4.526 2.263 2.263 0 000-4.526z" fill="#071D2B"/><path d="M42.908 196.24a.861.861 0 111.722 0 .861.861 0 01-1.722 0zm25.624-1.519c0-.818-.732-1.44-1.552-1.44-.82 0-1.544.615-1.551 1.44.007.825.708 1.44 1.551 1.44.844 0 1.552-.622 1.552-1.44zm-2.947 2.704h2.734v8.3h-2.734v-8.3zm9.769-.344c1.838 0 3.217 1.21 3.217 3.803v4.841h-2.737v-4.494c0-1.152-.33-1.901-1.364-1.901-.848.001-1.37.93-1.37 1.728v4.667h-2.73v-8.3h2.456v1.039a2.81 2.81 0 012.528-1.383zm32.097-2.504h1.84l-4.02 4.594 4.729 6.252h-3.703l-2.9-3.792-3.319 3.792h-1.841l4.3-4.914L98 194.577h3.797l2.622 3.466 3.032-3.466zm-.646 9.745h1.019l-6.581-8.702h-1.094l6.656 8.702z" fill="#071D2B"/><path fill-rule="evenodd" clip-rule="evenodd" d="M129 198.195c0-1.595 1.164-2.949 2.752-3.096a45.841 45.841 0 018.496 0c1.588.147 2.752 1.501 2.752 3.096v3.61c0 1.595-1.164 2.949-2.752 3.096a45.841 45.841 0 01-8.496 0c-1.588-.147-2.752-1.501-2.752-3.096v-3.61zm5.146 4.002v-4.394l4.395 2.197-4.395 2.197zM165 193a4 4 0 00-4 4v6a4 4 0 004 4h6a4 4 0 004-4v-6a4 4 0 00-4-4h-6zm.561 3.732v6.536h3.547c1.245 0 1.902-.784 1.902-1.764 0-.823-.559-1.499-1.255-1.607.618-.127 1.127-.676 1.127-1.499 0-.872-.637-1.666-1.881-1.666h-3.44zm3.136 2.626h-1.745v-1.44h1.745c.47 0 .764.313.764.715 0 .421-.294.725-.764.725zm.049 2.725h-1.794v-1.539h1.794c.549 0 .843.353.843.764 0 .471-.314.775-.843.775z" fill="#071D2B"/><path d="M198.248 196.182h-1.43a3.818 3.818 0 000 7.636h1.43m3.502-7.636h1.432a3.818 3.818 0 010 7.636h-1.432M196.818 200h6.364" stroke="#071D2B" stroke-width="1.8" stroke-linecap="round" stroke-linejoin="round"/><path d="M229.556 203.972a1.528 1.528 0 11-3.056 0 1.528 1.528 0 013.056 0zm-3.056-4.889c0-.506.412-.922.915-.86a7.338 7.338 0 016.362 6.362c.062.503-.354.915-.86.915-.507 0-.909-.413-.992-.913a5.508 5.508 0 00-4.512-4.512c-.5-.083-.913-.485-.913-.992z" fill="#071D2B"/><path d="M226.5 195.417c0-.507.412-.921.916-.879a11 11 0 0110.046 10.046c.042.504-.372.916-.879.916-.506 0-.912-.412-.961-.915a9.172 9.172 0 00-8.207-8.207c-.503-.049-.915-.455-.915-.961z" fill="#071D2B"/></svg>